<mxfile host="app.diagrams.net" modified="2023-08-28T09:29:01.818Z" agent="Mozilla/5.0 (Windows NT 10.0; Win64; x64) AppleWebKit/537.36 (KHTML, like Gecko) Chrome/116.0.0.0 Safari/537.36" version="21.6.9" etag="LwNwIGPB_C8ons_eG_kI" type="github">
  <diagram name="Page-1" id="lI44b50m9vBDmmrYOSL1">
    <mxGraphModel>
      <root>
        <mxCell id="0" />
        <mxCell id="1" parent="0" />
      </root>
    </mxGraphModel>
  </diagram>
</mxfile>
